<mxfile host="app.diagrams.net" modified="2023-05-10T07:43:58.589Z" agent="Mozilla/5.0 (Macintosh; Intel Mac OS X 10_15_7) AppleWebKit/537.36 (KHTML, like Gecko) Chrome/112.0.0.0 Safari/537.36" etag="IEECsy9TCDhJeIiCmSE3" version="21.2.3" type="device">
  <diagram name="Page-1" id="ak4fV9IoGpD5sglLON-H">
    <mxGraphModel dx="1590" dy="767" grid="1" gridSize="10" guides="1" tooltips="1" connect="1" arrows="1" fold="1" page="1" pageScale="1" pageWidth="1100" pageHeight="1700" math="0" shadow="0">
      <root>
        <mxCell id="0" />
        <mxCell id="1" parent="0" />
        <mxCell id="1zMnBb75jvfrrFSe2B_U-15" value="" style="rounded=1;whiteSpace=wrap;html=1;fillColor=#f5f5f5;fontColor=#333333;strokeColor=#666666;" vertex="1" parent="1">
          <mxGeometry x="250" y="120" width="780" height="390" as="geometry" />
        </mxCell>
        <mxCell id="1zMnBb75jvfrrFSe2B_U-34" value="" style="edgeStyle=orthogonalEdgeStyle;rounded=0;orthogonalLoop=1;jettySize=auto;html=1;" edge="1" parent="1" source="1zMnBb75jvfrrFSe2B_U-1" target="1zMnBb75jvfrrFSe2B_U-20">
          <mxGeometry relative="1" as="geometry" />
        </mxCell>
        <mxCell id="1zMnBb75jvfrrFSe2B_U-1" value="" style="sketch=0;outlineConnect=0;fontColor=#232F3E;gradientColor=none;fillColor=#067F68;strokeColor=none;dashed=0;verticalLabelPosition=bottom;verticalAlign=top;align=center;html=1;fontSize=12;fontStyle=0;aspect=fixed;pointerEvents=1;shape=mxgraph.aws4.sagemaker_model;" vertex="1" parent="1">
          <mxGeometry x="270" y="296" width="78" height="78" as="geometry" />
        </mxCell>
        <mxCell id="1zMnBb75jvfrrFSe2B_U-2" value="Model Building" style="text;strokeColor=none;align=center;fillColor=none;html=1;verticalAlign=middle;whiteSpace=wrap;rounded=0;" vertex="1" parent="1">
          <mxGeometry x="279" y="390" width="60" height="10" as="geometry" />
        </mxCell>
        <mxCell id="1zMnBb75jvfrrFSe2B_U-7" value="Experiment&lt;br&gt;&amp;amp; Artifact&lt;br&gt;Tracking" style="text;strokeColor=none;align=center;fillColor=none;html=1;verticalAlign=middle;whiteSpace=wrap;rounded=0;" vertex="1" parent="1">
          <mxGeometry x="412.5" y="390" width="60" height="10" as="geometry" />
        </mxCell>
        <mxCell id="1zMnBb75jvfrrFSe2B_U-37" value="" style="edgeStyle=orthogonalEdgeStyle;rounded=0;orthogonalLoop=1;jettySize=auto;html=1;" edge="1" parent="1" source="1zMnBb75jvfrrFSe2B_U-8" target="1zMnBb75jvfrrFSe2B_U-10">
          <mxGeometry relative="1" as="geometry" />
        </mxCell>
        <mxCell id="1zMnBb75jvfrrFSe2B_U-8" value="" style="shape=image;imageAspect=0;aspect=fixed;verticalLabelPosition=bottom;verticalAlign=top;image=https://repository-images.githubusercontent.com/135934107/7d1b9580-c328-11eb-931b-d46c26e29959;" vertex="1" parent="1">
          <mxGeometry x="549" y="293" width="84" height="84" as="geometry" />
        </mxCell>
        <mxCell id="1zMnBb75jvfrrFSe2B_U-9" value="Data&lt;br&gt;Version&lt;br&gt;Control" style="text;strokeColor=none;align=center;fillColor=none;html=1;verticalAlign=middle;whiteSpace=wrap;rounded=0;" vertex="1" parent="1">
          <mxGeometry x="560" y="380" width="60" height="30" as="geometry" />
        </mxCell>
        <mxCell id="1zMnBb75jvfrrFSe2B_U-38" value="" style="edgeStyle=orthogonalEdgeStyle;rounded=0;orthogonalLoop=1;jettySize=auto;html=1;" edge="1" parent="1" source="1zMnBb75jvfrrFSe2B_U-10" target="1zMnBb75jvfrrFSe2B_U-16">
          <mxGeometry relative="1" as="geometry" />
        </mxCell>
        <mxCell id="1zMnBb75jvfrrFSe2B_U-10" value="" style="shape=image;imageAspect=0;aspect=fixed;verticalLabelPosition=bottom;verticalAlign=top;image=https://avatars.githubusercontent.com/u/31670619?s=200&amp;v=4;" vertex="1" parent="1">
          <mxGeometry x="682.5" y="303.75" width="62.5" height="62.5" as="geometry" />
        </mxCell>
        <mxCell id="1zMnBb75jvfrrFSe2B_U-11" value="Data&lt;br&gt;Quality&lt;br&gt;Control" style="text;strokeColor=none;align=center;fillColor=none;html=1;verticalAlign=middle;whiteSpace=wrap;rounded=0;" vertex="1" parent="1">
          <mxGeometry x="682.5" y="380" width="60" height="30" as="geometry" />
        </mxCell>
        <mxCell id="1zMnBb75jvfrrFSe2B_U-12" value="" style="shape=image;imageAspect=0;aspect=fixed;verticalLabelPosition=bottom;verticalAlign=top;image=https://mlops.community/wp-content/uploads/2021/10/metaflow-1.png;" vertex="1" parent="1">
          <mxGeometry x="290" y="130" width="63.28" height="55" as="geometry" />
        </mxCell>
        <mxCell id="1zMnBb75jvfrrFSe2B_U-13" value="ML&lt;br&gt;Orchestration&lt;br&gt;Pipeline" style="text;strokeColor=none;align=center;fillColor=none;html=1;verticalAlign=middle;whiteSpace=wrap;rounded=0;" vertex="1" parent="1">
          <mxGeometry x="370" y="142.5" width="60" height="30" as="geometry" />
        </mxCell>
        <mxCell id="1zMnBb75jvfrrFSe2B_U-39" value="" style="edgeStyle=orthogonalEdgeStyle;rounded=0;orthogonalLoop=1;jettySize=auto;html=1;" edge="1" parent="1" source="1zMnBb75jvfrrFSe2B_U-16">
          <mxGeometry relative="1" as="geometry">
            <mxPoint x="900" y="335.0000000000002" as="targetPoint" />
          </mxGeometry>
        </mxCell>
        <mxCell id="1zMnBb75jvfrrFSe2B_U-16" value="" style="shape=image;imageAspect=0;aspect=fixed;verticalLabelPosition=bottom;verticalAlign=top;image=https://cdn.freebiesupply.com/logos/large/2x/flask-logo-png-transparent.png;" vertex="1" parent="1">
          <mxGeometry x="800" y="305.25" width="46.73" height="60" as="geometry" />
        </mxCell>
        <mxCell id="1zMnBb75jvfrrFSe2B_U-17" value="API&lt;br&gt;+ App UI" style="text;strokeColor=none;align=center;fillColor=none;html=1;verticalAlign=middle;whiteSpace=wrap;rounded=0;" vertex="1" parent="1">
          <mxGeometry x="793.37" y="380" width="60" height="30" as="geometry" />
        </mxCell>
        <mxCell id="1zMnBb75jvfrrFSe2B_U-40" value="" style="edgeStyle=orthogonalEdgeStyle;rounded=0;orthogonalLoop=1;jettySize=auto;html=1;" edge="1" parent="1" target="1zMnBb75jvfrrFSe2B_U-19">
          <mxGeometry relative="1" as="geometry">
            <mxPoint x="958.06" y="335.0000000000002" as="sourcePoint" />
          </mxGeometry>
        </mxCell>
        <mxCell id="1zMnBb75jvfrrFSe2B_U-35" value="" style="edgeStyle=orthogonalEdgeStyle;rounded=0;orthogonalLoop=1;jettySize=auto;html=1;" edge="1" parent="1" source="1zMnBb75jvfrrFSe2B_U-20" target="1zMnBb75jvfrrFSe2B_U-8">
          <mxGeometry relative="1" as="geometry" />
        </mxCell>
        <mxCell id="1zMnBb75jvfrrFSe2B_U-20" value="" style="shape=image;imageAspect=0;aspect=fixed;verticalLabelPosition=bottom;verticalAlign=top;image=https://raw.githubusercontent.com/wandb/assets/main/wandb-dots-logo.svg;" vertex="1" parent="1">
          <mxGeometry x="410" y="302.5" width="65" height="65" as="geometry" />
        </mxCell>
        <mxCell id="1zMnBb75jvfrrFSe2B_U-46" style="edgeStyle=orthogonalEdgeStyle;rounded=0;orthogonalLoop=1;jettySize=auto;html=1;exitX=1;exitY=0.5;exitDx=0;exitDy=0;entryX=0;entryY=0.475;entryDx=0;entryDy=0;entryPerimeter=0;" edge="1" parent="1" source="1zMnBb75jvfrrFSe2B_U-25" target="1zMnBb75jvfrrFSe2B_U-15">
          <mxGeometry relative="1" as="geometry" />
        </mxCell>
        <mxCell id="1zMnBb75jvfrrFSe2B_U-25" value="" style="whiteSpace=wrap;html=1;aspect=fixed;" vertex="1" parent="1">
          <mxGeometry x="30" y="210" width="190" height="190" as="geometry" />
        </mxCell>
        <mxCell id="1zMnBb75jvfrrFSe2B_U-32" style="edgeStyle=orthogonalEdgeStyle;rounded=0;orthogonalLoop=1;jettySize=auto;html=1;" edge="1" parent="1" source="1zMnBb75jvfrrFSe2B_U-26">
          <mxGeometry relative="1" as="geometry">
            <mxPoint x="130" y="400" as="targetPoint" />
          </mxGeometry>
        </mxCell>
        <mxCell id="1zMnBb75jvfrrFSe2B_U-26" value="Users" style="sketch=0;outlineConnect=0;fontColor=#232F3E;gradientColor=none;strokeColor=#232F3E;fillColor=#ffffff;dashed=0;verticalLabelPosition=bottom;verticalAlign=top;align=center;html=1;fontSize=12;fontStyle=0;aspect=fixed;shape=mxgraph.aws4.resourceIcon;resIcon=mxgraph.aws4.users;" vertex="1" parent="1">
          <mxGeometry x="10" y="410" width="60" height="60" as="geometry" />
        </mxCell>
        <mxCell id="1zMnBb75jvfrrFSe2B_U-27" value="" style="dashed=0;outlineConnect=0;html=1;align=center;labelPosition=center;verticalLabelPosition=bottom;verticalAlign=top;shape=mxgraph.webicons.github;gradientColor=#DFDEDE" vertex="1" parent="1">
          <mxGeometry x="40" y="331.6" width="50" height="52.4" as="geometry" />
        </mxCell>
        <mxCell id="1zMnBb75jvfrrFSe2B_U-29" value="" style="rounded=0;whiteSpace=wrap;html=1;" vertex="1" parent="1">
          <mxGeometry x="40" y="220" width="150" height="100" as="geometry" />
        </mxCell>
        <mxCell id="1zMnBb75jvfrrFSe2B_U-30" value="&lt;font style=&quot;font-size: 16px;&quot;&gt;GitHub&lt;br&gt;Actions&lt;br&gt;CICD&lt;br&gt;Workflow&lt;/font&gt;" style="text;strokeColor=none;align=left;fillColor=none;html=1;verticalAlign=middle;whiteSpace=wrap;rounded=0;" vertex="1" parent="1">
          <mxGeometry x="50" y="226.25" width="130" height="80" as="geometry" />
        </mxCell>
        <mxCell id="1zMnBb75jvfrrFSe2B_U-31" value="&lt;font style=&quot;font-size: 14px;&quot;&gt;GitHub Repo&lt;/font&gt;" style="text;strokeColor=none;align=center;fillColor=none;html=1;verticalAlign=middle;whiteSpace=wrap;rounded=0;" vertex="1" parent="1">
          <mxGeometry x="92.5" y="350" width="87.5" height="30" as="geometry" />
        </mxCell>
        <mxCell id="1zMnBb75jvfrrFSe2B_U-33" value="Git Push" style="text;strokeColor=none;align=center;fillColor=none;html=1;verticalAlign=middle;whiteSpace=wrap;rounded=0;" vertex="1" parent="1">
          <mxGeometry x="90" y="440" width="60" height="30" as="geometry" />
        </mxCell>
        <mxCell id="1zMnBb75jvfrrFSe2B_U-47" value="" style="shape=image;imageAspect=0;aspect=fixed;verticalLabelPosition=bottom;verticalAlign=top;image=https://uploads-ssl.webflow.com/6266b595eef18c96eef938e2/62b245d0f032adaa18124084_evidently_ai_logo_fi.png;clipPath=inset(11.11% 76.33% 0% 0%);" vertex="1" parent="1">
          <mxGeometry x="910" y="293" width="71" height="80" as="geometry" />
        </mxCell>
        <mxCell id="1zMnBb75jvfrrFSe2B_U-48" value="Model&lt;br&gt;Monitoring&lt;br&gt;+ Dashboard" style="text;strokeColor=none;align=center;fillColor=none;html=1;verticalAlign=middle;whiteSpace=wrap;rounded=0;" vertex="1" parent="1">
          <mxGeometry x="915.5" y="377" width="60" height="30" as="geometry" />
        </mxCell>
      </root>
    </mxGraphModel>
  </diagram>
</mxfile>
